<?xml version="1.0" encoding="utf-8"?>
<!-- Generator: Adobe Illustrator 22.0.1, SVG Export Plug-In . SVG Version: 6.00 Build 0)  -->
<svg version="1.1" id="Layer_1" xmlns="http://www.w3.org/2000/svg" xmlns:xlink="http://www.w3.org/1999/xlink" x="0px" y="0px"
	 viewBox="0 0 282.5 124" style="enable-background:new 0 0 282.5 124;" xml:space="preserve">
<style type="text/css">
	.Arched_x0020_Green{fill:url(#SVGID_1_);stroke:#FFFFFF;stroke-width:0.25;stroke-miterlimit:1;}
	.st0{fill-rule:evenodd;clip-rule:evenodd;fill:#FFFFFF;}
	.st1{fill:#FFFFFF;}
	.st2{clip-path:url(#SVGID_3_);fill:none;stroke:#FFFFFF;stroke-width:2.5;stroke-miterlimit:10;}
</style>
<linearGradient id="SVGID_1_" gradientUnits="userSpaceOnUse" x1="-279.6935" y1="359.6481" x2="-278.9864" y2="358.941">
	<stop  offset="0" style="stop-color:#20AC4B"/>
	<stop  offset="0.9831" style="stop-color:#19361A"/>
</linearGradient>
<g>
	<g>
		<g>
			<path class="st0" d="M121.1,75c-2.3,0-4.2,0.4-5.8,1.2c-1.6,0.8-2.8,1.9-3.7,3.2c-0.8,1.4-1.3,2.9-1.3,4.6c0,1.7,0.4,3.2,1.3,4.6
				c0.8,1.4,2.1,2.4,3.7,3.2c1.6,0.8,3.5,1.2,5.8,1.2h0.7V95h5.4v-1.9h0.7c2.3,0,4.2-0.4,5.8-1.2c1.6-0.8,2.8-1.9,3.7-3.2
				c0.8-1.4,1.3-2.9,1.3-4.6c0-1.7-0.4-3.2-1.3-4.6c-0.9-1.4-2.1-2.4-3.7-3.2c-1.6-0.8-3.5-1.2-5.8-1.2h-0.7v-1.8h-5.4V75H121.1z
				 M128.4,79c1.4,0,2.6,0.5,3.4,1.3c0.9,0.9,1.3,2.1,1.3,3.7c0,1.5-0.5,2.8-1.3,3.7c-0.9,0.9-2,1.4-3.4,1.4h-1.2V79H128.4z
				 M120.7,89.1c-1.4,0-2.6-0.5-3.4-1.4c-0.9-0.9-1.3-2.1-1.3-3.7c0-1.6,0.5-2.8,1.3-3.7c0.9-0.9,2-1.3,3.4-1.3h1.2v10.1H120.7z"/>
			<path class="st0" d="M147.2,73.2L138.4,95h5.8l1.6-4.3h9.7l1.8,4.3h5.8l-9.7-21.8H147.2z M147.2,86.9l3.2-8.5l3.5,8.5H147.2z"/>
			<path class="st0" d="M165.6,73.2V95h10.6c2.1,0,3.7-0.4,4.9-1.2c1.2-0.8,1.9-1.7,2.4-2.7c0.4-1.1,0.7-2,0.6-2.9
				c0-1.1-0.3-2.2-0.9-3.2c-0.6-1-1.5-1.9-2.7-2.6c-1.2-0.7-2.8-1-4.8-1.1H171v-4.1h11.2v-4H165.6z M174.8,85.3c1,0,1.8,0.3,2.5,0.8
				c0.7,0.5,1,1.2,1,2c0,0.9-0.3,1.7-1,2.2c-0.7,0.5-1.8,0.8-3.3,0.8H171v-5.8H174.8z"/>
			<polygon class="st0" points="193.4,91 193.4,85.8 203.4,85.8 203.4,81.8 193.4,81.8 193.4,77.2 203.9,77.2 203.9,73.2 188,73.2 
				188,95 204.1,95 204.1,91 			"/>
			<path class="st0" d="M208.4,95h5.4v-8.8h4.3c1.7,0,3-0.4,4.1-1c1.1-0.7,1.8-1.5,2.3-2.5c0.5-1,0.8-2,0.8-3.1c0-1-0.3-2-0.8-3
				c-0.5-1-1.3-1.8-2.4-2.4c-1.1-0.7-2.4-1-4.1-1h-9.7V95z M215.8,77.2c1.5,0,2.5,0.2,3.1,0.6c0.6,0.4,0.9,1,0.9,2
				c0,0.8-0.2,1.4-0.8,1.9c-0.5,0.4-1.4,0.6-2.6,0.7h-2.5v-5.1H215.8z"/>
			<polygon class="st0" points="266,91 266,85.8 275.9,85.8 275.9,81.8 266,81.8 266,77.2 276.4,77.2 276.4,73.2 260.6,73.2 
				260.6,95 276.7,95 276.7,91 			"/>
			<path class="st1" d="M249.3,83.4c0.3,0.1,0.7,0.3,1,0.5c1.1,0.6,1.8,1.1,2.5,2.1c0.8,1,1.4,2,2,3.3l2.8,5.8h-6l-2.2-4.9
				c-0.7-1.5-1.5-2.6-2.3-3.3c-0.9-0.7-1.8-1.1-2.8-1.1h-0.3V95h-1.7h-3.7l0-9.3h-0.3c-1,0-2,0.4-2.8,1.1c-0.9,0.7-1.7,1.8-2.3,3.3
				l-2.2,4.9h-6l2.8-5.8c0.6-1.2,1.2-2.3,2-3.3c0.8-1,1.4-1.4,2.5-2.1c0.3-0.2,0.7-0.4,1-0.5l-7.1-10.2h6l6.6,9.9l0-9.9h3.7h1.7v9.9
				l6.6-9.9h6L249.3,83.4z"/>
		</g>
		<g>
			<polygon class="st0" points="132,45.2 129.1,45.2 121.8,54.2 114.6,45.2 111.7,45.2 111.7,67 114.8,67 114.8,50.1 114.9,50.1 
				121.6,58.5 122.1,58.5 128.8,50.1 128.9,50.1 128.9,67 132,67 			"/>
			<path class="st0" d="M157.5,57.3h3c1.7,0,2.9,0.3,3.7,1c0.7,0.7,1.1,1.5,1.1,2.7c0,1.1-0.5,1.9-1.5,2.6c-0.9,0.6-2.2,1-3.7,1
				c-1.2,0-2.3-0.1-3.4-0.4c-1.1-0.3-2.2-0.7-3.3-1.3v3.1c1.2,0.5,2.3,0.9,3.4,1.1c1.1,0.2,2.2,0.3,3.4,0.3c2.6,0,4.6-0.6,6.1-1.8
				c1.5-1.2,2.2-2.7,2.2-4.7c0-1.3-0.5-2.4-1.3-3.3c-0.8-0.9-1.9-1.5-3.2-1.8c1.2-0.4,2.2-1,2.9-1.7c0.7-0.8,1-1.8,1-3.1
				c0-1.8-0.7-3.2-2.1-4.2c-1.4-1-3.2-1.6-5.5-1.6c-1.3,0-2.4,0.2-3.4,0.4c-1,0.3-1.9,0.6-2.6,1v2.9c1-0.5,1.9-0.9,2.8-1.1
				c0.9-0.3,1.7-0.4,2.5-0.4c1.8,0,3.2,0.3,4,0.9c0.8,0.6,1.2,1.5,1.2,2.6c0,1-0.5,1.8-1.4,2.3c-0.9,0.6-2.3,0.8-4.1,0.8h-1.6
				L157.5,57.3z"/>
			<polygon class="st0" points="184.4,45.2 172,45.2 172,67 184.7,67 184.7,64.2 175.1,64.2 175.1,57.4 184,57.4 184,54.6 
				175.1,54.6 175.1,48 184.4,48 			"/>
			<path class="st0" d="M188,67h2.6l13.9-17v17h3.1V45.2h-2.6l-13.9,16.9V45.2H188V67z M203.3,40c-0.3,1.3-0.9,2.3-1.9,3.1
				c-1,0.8-2.2,1.2-3.7,1.2c-1.5,0-2.8-0.4-3.7-1.2c-1-0.8-1.6-1.8-1.9-3.1h2.7c0.2,0.7,0.6,1.1,1,1.4c0.5,0.3,1.1,0.5,1.9,0.5
				c0.8,0,1.4-0.1,1.9-0.5c0.5-0.3,0.8-0.8,1-1.4H203.3z"/>
			<polygon class="st0" points="137.5,45.2 134.3,45.2 142.5,60.2 139.1,67 142.3,67 152.9,45.2 149.8,45.2 144,57.2 			"/>
		</g>
	</g>
	<g>
		<defs>
			<path id="SVGID_2_" d="M6.8,58.7c0-29.5,18.6-51.6,41.5-51.6c22.9,0,41.5,22,41.5,51.6c0,29.5-24.1,57.4-41.5,57.4
				C31,116.1,6.8,88.3,6.8,58.7z"/>
		</defs>
		<clipPath id="SVGID_3_">
			<use xlink:href="#SVGID_2_"  style="overflow:visible;"/>
		</clipPath>
		<path class="st2" d="M51.2,47.5c0,11.9,9.6,21.5,21.5,21.5c11.9,0,21.5-9.6,21.5-21.5c0-11.9-9.6-21.5-21.5-21.5
			C60.8,26,51.2,35.6,51.2,47.5z M36.7,47.5c0-19.9,16.1-36,36-36s36,16.1,36,36c0,19.9-16.1,36-36,36S36.7,67.4,36.7,47.5z"/>
		<path class="st2" d="M20.4,37.1c0,11.9,9.6,21.5,21.5,21.5c11.9,0,21.5-9.6,21.5-21.5c0-11.9-9.6-21.5-21.5-21.5
			C30,15.5,20.4,25.2,20.4,37.1z M5.9,37.1c0-19.9,16.1-36,36-36s36,16.1,36,36c0,19.9-16.1,36-36,36S5.9,57,5.9,37.1z"/>
		<path class="st2" d="M28,79.2c0,14.5,11.7,26.2,26.2,26.2s26.2-11.7,26.2-26.2C80.3,64.7,68.6,53,54.1,53S28,64.7,28,79.2z
			 M10.3,79.2c0-24.2,19.6-43.8,43.8-43.8C78.3,35.3,98,55,98,79.2c0,24.2-19.6,43.8-43.8,43.8C29.9,123,10.3,103.4,10.3,79.2z"/>
		
			<use xlink:href="#SVGID_2_"  style="overflow:visible;fill-rule:evenodd;clip-rule:evenodd;fill:none;stroke:#FFFFFF;stroke-width:2.5;stroke-miterlimit:10;"/>
	</g>
</g>
</svg>
