<?xml version="1.0" encoding="utf-8"?>
<!-- Generator: Adobe Illustrator 22.1.0, SVG Export Plug-In . SVG Version: 6.00 Build 0)  -->
<svg version="1.1" id="Layer_1" xmlns="http://www.w3.org/2000/svg" xmlns:xlink="http://www.w3.org/1999/xlink" x="0px" y="0px"
	 viewBox="0 0 46.7 113" style="enable-background:new 0 0 46.7 113;" xml:space="preserve">
<style type="text/css">
	.st0{clip-path:url(#SVGID_3_);fill:none;stroke:#FFFFFF;stroke-miterlimit:10;}
	.st1{clip-path:url(#SVGID_5_);fill:none;stroke:#FFFFFF;stroke-miterlimit:10;}
	.st2{clip-path:url(#SVGID_7_);fill:none;stroke:#FFFFFF;stroke-miterlimit:10;}
	.st3{fill:none;stroke:#FFFFFF;stroke-miterlimit:10;}
</style>
<g>
	<g>
		<g>
			<g>
				<defs>
					<path id="SVGID_1_" d="M1.4,53.7C1.4,24.2,20,2.1,42.9,2.1s41.5,22,41.5,51.6c0,29.5-24.1,57.4-41.5,57.4
						C25.6,111.1,1.4,83.3,1.4,53.7z"/>
				</defs>
				<clipPath id="SVGID_3_">
					<use xlink:href="#SVGID_1_"  style="overflow:visible;"/>
				</clipPath>
				<path class="st0" d="M45.8,42.5c0,11.9,9.6,21.5,21.5,21.5s21.5-9.6,21.5-21.5S79.2,21,67.3,21S45.8,30.6,45.8,42.5z M31.3,42.5
					c0-19.9,16.1-36,36-36s36,16.1,36,36s-16.1,36-36,36S31.3,62.4,31.3,42.5z"/>
			</g>
		</g>
		<g>
			<g>
				<defs>
					<path id="SVGID_4_" d="M1.4,53.7C1.4,24.2,20,2.1,42.9,2.1s41.5,22,41.5,51.6c0,29.5-24.1,57.4-41.5,57.4
						C25.6,111.1,1.4,83.3,1.4,53.7z"/>
				</defs>
				<clipPath id="SVGID_5_">
					<use xlink:href="#SVGID_4_"  style="overflow:visible;"/>
				</clipPath>
				<path class="st1" d="M15,32.1c0,11.9,9.6,21.5,21.5,21.5S58,44,58,32.1s-9.6-21.5-21.5-21.5C24.6,10.5,15,20.2,15,32.1z
					 M0.5,32.1c0-19.9,16.1-36,36-36s36,16.1,36,36s-16.1,36-36,36S0.5,52,0.5,32.1z"/>
			</g>
		</g>
		<g>
			<g>
				<defs>
					<path id="SVGID_6_" d="M1.4,53.7C1.4,24.2,20,2.1,42.9,2.1s41.5,22,41.5,51.6c0,29.5-24.1,57.4-41.5,57.4
						C25.6,111.1,1.4,83.3,1.4,53.7z"/>
				</defs>
				<clipPath id="SVGID_7_">
					<use xlink:href="#SVGID_6_"  style="overflow:visible;"/>
				</clipPath>
				<path class="st2" d="M22.6,74.2c0,14.5,11.7,26.2,26.2,26.2S75,88.7,75,74.2C74.9,59.7,63.2,48,48.7,48S22.6,59.7,22.6,74.2z
					 M4.9,74.2c0-24.2,19.6-43.8,43.8-43.8C72.9,30.3,92.6,50,92.6,74.2S73,118,48.8,118C24.5,118,4.9,98.4,4.9,74.2z"/>
			</g>
		</g>
		<g>
			<path id="SVGID_2_" class="st3" d="M1.4,53.7C1.4,24.2,20,2.1,42.9,2.1s41.5,22,41.5,51.6c0,29.5-24.1,57.4-41.5,57.4
				C25.6,111.1,1.4,83.3,1.4,53.7z"/>
		</g>
	</g>
</g>
</svg>
