<?xml version="1.0" encoding="utf-8"?>
<!-- Generator: Adobe Illustrator 22.1.0, SVG Export Plug-In . SVG Version: 6.00 Build 0)  -->
<svg version="1.1" id="Layer_1" xmlns="http://www.w3.org/2000/svg" xmlns:xlink="http://www.w3.org/1999/xlink" x="0px" y="0px"
	 viewBox="0 0 512 512" style="enable-background:new 0 0 512 512;" xml:space="preserve">
<style type="text/css">
	.st0{fill:#41464E;}
</style>
<path class="st0" d="M256,0C114.6,0,0,114.6,0,256s114.6,256,256,256s256-114.6,256-256S397.4,0,256,0z M119.9,369.8
	c-3.2,0.8-6.5,0-9.1-2c-2.5-2.1-4-5.1-4-8.4V189.7c0-5.9,4.8-10.7,10.7-10.7h7.7v133.8c0,15,12.2,27.3,27.2,27.3
	c21.1,0,55.9,4.2,80.5,27.5C190.4,357.2,145.5,364,119.9,369.8z M247.8,358.8c-28.8-30-70.5-35.2-95.3-35.3
	c-5.9,0-10.7-4.8-10.7-10.7V152.7c0-2.8,1.2-5.6,3.2-7.6s4.7-3.1,7.5-3.1c24.9,0.1,70.1,5.8,93.8,43.8c1,1.5,1.5,3.4,1.5,5.4V358.8z
	 M264.2,358.8V191.2c0-2,0.5-3.8,1.5-5.4c23.5-38,68.9-43.7,93.8-43.8c2.8,0,5.5,1.1,7.5,3.1c2.1,2.1,3.2,4.7,3.2,7.6v160.1
	c0,5.9-4.8,10.7-10.7,10.7C334.5,323.6,292.9,328.7,264.2,358.8z M405.3,359.5c0,3.3-1.4,6.4-4,8.4c-2.6,2-5.9,2.7-9.1,2
	c-25.5-5.8-70.4-12.6-113-2.2c24.7-23.4,59.4-27.4,80.5-27.5c15-0.1,27.2-12.3,27.2-27.3V179h7.7c5.9,0,10.6,4.7,10.7,10.6V359.5z"
	/>
</svg>
