<?xml version="1.0" encoding="utf-8"?>
<!-- Generator: Adobe Illustrator 22.1.0, SVG Export Plug-In . SVG Version: 6.00 Build 0)  -->
<svg version="1.1" id="Слой_2_1_" xmlns="http://www.w3.org/2000/svg" xmlns:xlink="http://www.w3.org/1999/xlink" x="0px"
	 y="0px" viewBox="0 0 512 512" style="enable-background:new 0 0 512 512;" xml:space="preserve">
<style type="text/css">
	.st0{fill:#41464E;}
</style>
<path class="st0" d="M256.1,0.7C115.2,0.7,1,114.9,1,255.8s114.2,255.1,255.1,255.1s255.1-114.2,255.1-255.1S397,0.7,256.1,0.7z
	 M390.4,364.4H385h-40.7c-2.1,0-3.8-1.7-3.8-3.8V257.9c0-2.1,1.7-3.8,3.8-3.8h22.6c-1.2-72.2-44.4-118.6-110.8-118.6
	s-109.5,46.4-110.8,118.6h22.6c2.1,0,3.8,1.7,3.8,3.8v102.8c-0.1,2-1.8,3.7-3.8,3.7h-40.7h-5.4c-20.1,0-35.8-24.2-35.8-55.2
	c0-30.9,15.7-55.2,35.8-55.2h1.5v-11.6c0-73.3,59.5-132.9,132.7-132.9s132.7,59.6,132.7,132.9v11.7h1.7c20.1,0,35.8,24.2,35.8,55.2
	S410.5,364.4,390.4,364.4z"/>
</svg>
