<?xml version="1.0" encoding="utf-8"?>
<!-- Generator: Adobe Illustrator 22.0.1, SVG Export Plug-In . SVG Version: 6.00 Build 0)  -->
<svg version="1.1" id="Layer_1" xmlns="http://www.w3.org/2000/svg" xmlns:xlink="http://www.w3.org/1999/xlink" x="0px" y="0px"
	 viewBox="0 0 272.2 270.6" style="enable-background:new 0 0 272.2 270.6;" xml:space="preserve">
<style type="text/css">
	.st0{fill:url(#SVGID_1_);}
	.st1{fill:url(#SVGID_2_);}
</style>
<g>
	
		<linearGradient id="SVGID_1_" gradientUnits="userSpaceOnUse" x1="-1834.2994" y1="6.1611" x2="-1833.9919" y2="7.1121" gradientTransform="matrix(174.975 -132.6948 154.448 203.6595 320048.0312 -244597.1875)">
		<stop  offset="0.2088" style="stop-color:#A91F66"/>
		<stop  offset="0.84" style="stop-color:#E99723"/>
	</linearGradient>
	<path class="st0" d="M136,270.4C94.8,231.7,12.4,154.2,12.4,154.2L2.2,99.1c0,0,11.9-20.3,17.9-30.4C37,62.1,53.9,55.6,70.9,49
		c2.2-11.4,4.5-22.7,6.7-34.1c15.7-3.9,31.4-7.8,47.1-11.7c13.1,2.8,26.2,5.6,39.3,8.3c33.3,64.3,66.6,128.6,99.9,193
		c-6.8,14.2-13.7,28.4-20.5,42.7C207.5,255,171.8,262.7,136,270.4z"/>
	
		<linearGradient id="SVGID_2_" gradientUnits="userSpaceOnUse" x1="-1842.0597" y1="-10.5838" x2="-1842.5828" y2="-11.3058" gradientTransform="matrix(-182.9101 -31.4844 40.0341 -232.5796 -336365.625 -60425.793)">
		<stop  offset="0.14" style="stop-color:#F7C946"/>
		<stop  offset="0.1737" style="stop-color:#EAC24B"/>
		<stop  offset="0.2358" style="stop-color:#C8AE58"/>
		<stop  offset="0.3194" style="stop-color:#928E6E"/>
		<stop  offset="0.4202" style="stop-color:#47628B"/>
		<stop  offset="0.4793" style="stop-color:#18479E"/>
	</linearGradient>
	<path class="st1" d="M85.1,148.1l18.9,86l57.9,15.2l106.5-71.7c-4.7-21.1-9.4-42.2-14.1-63.3c3-18,6.1-36.1,9.1-54.1l-40.6-39.8
		c-23.9,3.8-47.8,7.5-71.7,11.3C133.7,43.6,116.4,55.6,99,67.6c3.8,14.7,7.6,29.4,11.3,44.1C101.9,123.9,93.5,136,85.1,148.1z"/>
</g>
</svg>
