<?xml version="1.0" encoding="utf-8"?>
<!-- Generator: Adobe Illustrator 22.0.1, SVG Export Plug-In . SVG Version: 6.00 Build 0)  -->
<svg version="1.1" id="Layer_1" xmlns="http://www.w3.org/2000/svg" xmlns:xlink="http://www.w3.org/1999/xlink" x="0px" y="0px"
	 viewBox="0 0 273.3 164.7" style="enable-background:new 0 0 273.3 164.7;" xml:space="preserve">
<style type="text/css">
	.Arched_x0020_Green{fill:url(#SVGID_1_);stroke:#FFFFFF;stroke-width:0.25;stroke-miterlimit:1;}
	.st0{fill-rule:evenodd;clip-rule:evenodd;fill:#FFFFFF;}
	.st1{fill:#FFFFFF;}
	.st2{clip-path:url(#SVGID_3_);fill:none;stroke:#FFFFFF;stroke-width:2.126;stroke-miterlimit:10;}
</style>
<linearGradient id="SVGID_1_" gradientUnits="userSpaceOnUse" x1="-284.7744" y1="378.8208" x2="-284.0674" y2="378.1137">
	<stop  offset="0" style="stop-color:#20AC4B"/>
	<stop  offset="0.9831" style="stop-color:#19361A"/>
</linearGradient>
<g>
	<g>
		<g>
			<path class="st0" d="M115.8,141.3c-2.3,0-4.2,0.4-5.8,1.2c-1.6,0.8-2.8,1.9-3.7,3.2c-0.8,1.4-1.3,2.9-1.3,4.6
				c0,1.7,0.4,3.2,1.3,4.6c0.8,1.4,2.1,2.4,3.7,3.2c1.6,0.8,3.5,1.2,5.8,1.2h0.7v1.9h5.4v-1.9h0.7c2.3,0,4.2-0.4,5.8-1.2
				c1.6-0.8,2.8-1.9,3.7-3.2c0.8-1.4,1.3-2.9,1.3-4.6c0-1.7-0.4-3.2-1.3-4.6c-0.8-1.4-2.1-2.4-3.7-3.2c-1.6-0.8-3.5-1.2-5.8-1.2
				h-0.7v-1.8h-5.4v1.8H115.8z M123.1,145.3c1.4,0,2.6,0.5,3.4,1.3c0.9,0.9,1.3,2.1,1.3,3.7c0,1.5-0.5,2.8-1.3,3.7
				c-0.9,0.9-2,1.4-3.4,1.4h-1.2v-10.1H123.1z M115.3,155.4c-1.4,0-2.6-0.5-3.4-1.4c-0.9-0.9-1.3-2.1-1.3-3.7c0-1.6,0.5-2.8,1.3-3.7
				c0.9-0.9,2-1.3,3.4-1.3h1.2v10.1H115.3z"/>
			<path class="st0" d="M141.8,139.5l-8.8,21.8h5.7l1.6-4.3h9.7l1.8,4.3h5.8l-9.7-21.8H141.8z M141.9,153.2l3.2-8.5l3.5,8.5H141.9z"
				/>
			<path class="st0" d="M160.2,139.5v21.8h10.6c2.1,0,3.7-0.4,4.9-1.2c1.1-0.8,1.9-1.7,2.4-2.7c0.4-1.1,0.7-2,0.6-2.9
				c0-1.1-0.3-2.2-0.9-3.2c-0.6-1-1.5-1.9-2.7-2.6c-1.2-0.7-2.8-1-4.8-1.1h-4.7v-4.1h11.2v-4H160.2z M169.4,151.6
				c1,0,1.8,0.3,2.5,0.8c0.7,0.5,1,1.2,1,2c0,0.9-0.3,1.7-1,2.2c-0.7,0.5-1.8,0.8-3.2,0.8h-3.1v-5.8H169.4z"/>
			<polygon class="st0" points="188,157.3 188,152.1 197.9,152.1 197.9,148.1 188,148.1 188,143.5 198.4,143.5 198.4,139.5 
				182.6,139.5 182.6,161.3 198.6,161.3 198.6,157.3 			"/>
			<path class="st0" d="M203,161.3h5.4v-8.7h4.3c1.7,0,3-0.4,4.1-1c1.1-0.7,1.8-1.5,2.3-2.5c0.5-1,0.8-2,0.7-3.1c0-1-0.2-2-0.8-3
				c-0.5-1-1.3-1.8-2.4-2.4c-1.1-0.6-2.4-1-4.1-1H203V161.3z M210.3,143.5c1.5,0,2.5,0.2,3.1,0.6c0.6,0.4,0.9,1,0.9,2
				c0,0.8-0.2,1.4-0.8,1.9c-0.5,0.4-1.4,0.6-2.6,0.7h-2.5v-5H210.3z"/>
			<polygon class="st0" points="260.5,157.3 260.5,152.1 270.4,152.1 270.4,148.1 260.5,148.1 260.5,143.5 270.9,143.5 270.9,139.5 
				255.1,139.5 255.1,161.3 271.1,161.3 271.1,157.3 			"/>
			<path class="st1" d="M243.8,149.8c0.3,0.1,0.7,0.3,1,0.5c1.1,0.6,1.8,1.1,2.5,2.1s1.4,2,2,3.2l2.8,5.7h-6l-2.2-4.8
				c-0.7-1.5-1.5-2.6-2.3-3.3c-0.9-0.7-1.8-1.1-2.8-1.1h-0.3v9.3h-1.7H233l0-9.3h-0.3c-1,0-2,0.4-2.8,1.1c-0.9,0.7-1.7,1.8-2.3,3.3
				l-2.2,4.8h-6l2.8-5.7c0.6-1.2,1.2-2.3,2-3.2c0.8-1,1.4-1.4,2.5-2.1c0.3-0.2,0.7-0.4,1-0.5l-7.1-10.2h6l6.6,9.9l0-9.9h3.7h1.7v9.9
				l6.6-9.9h6L243.8,149.8z"/>
		</g>
		<g>
			<polygon class="st0" points="22.5,139.6 19.6,139.6 12.4,148.5 5.1,139.6 2.2,139.6 2.2,161.3 5.3,161.3 5.3,144.4 5.4,144.4 
				12.1,152.8 12.6,152.8 19.3,144.4 19.4,144.4 19.4,161.3 22.5,161.3 			"/>
			<path class="st0" d="M47.9,151.6h3c1.7,0,2.9,0.3,3.7,1c0.7,0.7,1.1,1.5,1.1,2.7c0,1.1-0.5,1.9-1.5,2.6c-0.9,0.6-2.2,1-3.7,1
				c-1.2,0-2.3-0.1-3.4-0.4c-1.1-0.3-2.2-0.7-3.3-1.3v3.1c1.2,0.5,2.3,0.9,3.4,1.1c1.1,0.2,2.2,0.3,3.4,0.3c2.6,0,4.6-0.6,6.1-1.8
				c1.5-1.2,2.2-2.7,2.2-4.7c0-1.3-0.5-2.4-1.3-3.3c-0.8-0.9-1.9-1.5-3.2-1.8c1.2-0.4,2.2-1,2.9-1.7c0.7-0.8,1-1.8,1-3.1
				c0-1.8-0.7-3.1-2.1-4.2c-1.4-1-3.2-1.6-5.5-1.6c-1.3,0-2.4,0.2-3.4,0.4c-1,0.3-1.9,0.6-2.6,1v2.9c1-0.5,1.9-0.9,2.8-1.1
				c0.9-0.3,1.7-0.4,2.5-0.4c1.8,0,3.2,0.3,4,0.9c0.8,0.6,1.2,1.5,1.2,2.6c0,1-0.4,1.8-1.4,2.3c-0.9,0.6-2.3,0.8-4.1,0.8h-1.6
				L47.9,151.6z"/>
			<polygon class="st0" points="74.8,139.6 62.5,139.6 62.5,161.3 75.1,161.3 75.1,158.5 65.6,158.5 65.6,151.7 74.5,151.7 
				74.5,148.9 65.6,148.9 65.6,142.4 74.8,142.4 			"/>
			<path class="st0" d="M78.4,161.3h2.6L95,144.4v16.9h3.1v-21.8h-2.6l-13.9,16.9v-16.9h-3.1V161.3z M93.7,134.3
				c-0.3,1.3-0.9,2.3-1.9,3.1c-1,0.8-2.2,1.2-3.7,1.2c-1.5,0-2.8-0.4-3.7-1.2c-1-0.8-1.6-1.8-1.9-3.1h2.7c0.2,0.7,0.6,1.1,1,1.4
				c0.5,0.3,1.1,0.5,1.9,0.5c0.8,0,1.4-0.1,1.9-0.5c0.5-0.3,0.8-0.8,1-1.4H93.7z"/>
			<polygon class="st0" points="28,139.6 24.8,139.6 33,154.6 29.6,161.3 32.8,161.3 43.4,139.6 40.3,139.6 34.5,151.6 			"/>
		</g>
	</g>
	<g>
		<defs>
			<path id="SVGID_2_" d="M96.5,60.5C96.5,31,115,9,137.9,9c22.9,0,41.5,22,41.5,51.5c0,29.5-24.1,57.3-41.5,57.3
				C120.6,117.8,96.5,90,96.5,60.5z"/>
		</defs>
		<clipPath id="SVGID_3_">
			<use xlink:href="#SVGID_2_"  style="overflow:visible;"/>
		</clipPath>
		<path class="st2" d="M140.8,49.2c0,11.9,9.6,21.5,21.5,21.5s21.5-9.6,21.5-21.5c0-11.9-9.6-21.5-21.5-21.5S140.8,37.4,140.8,49.2z
			 M126.3,49.2c0-19.9,16.1-36,36-36c19.9,0,36,16.1,36,36c0,19.9-16.1,36-36,36C142.4,85.2,126.3,69.1,126.3,49.2z"/>
		<path class="st2" d="M110,38.8c0,11.9,9.6,21.5,21.5,21.5S153,50.7,153,38.8c0-11.9-9.6-21.5-21.5-21.5S110,26.9,110,38.8z
			 M95.5,38.8c0-19.9,16.1-36,36-36s36,16.1,36,36c0,19.9-16.1,36-36,36S95.5,58.7,95.5,38.8z"/>
		<path class="st2" d="M117.6,80.9c0,14.4,11.7,26.2,26.2,26.2c14.4,0,26.2-11.7,26.2-26.2c0-14.4-11.7-26.2-26.2-26.2
			C129.3,54.7,117.6,66.4,117.6,80.9z M99.9,80.9c0-24.2,19.6-43.8,43.8-43.8c24.2,0,43.8,19.6,43.8,43.8
			c0,24.2-19.6,43.8-43.8,43.8C119.5,124.7,99.9,105.1,99.9,80.9z"/>
		
			<use xlink:href="#SVGID_2_"  style="overflow:visible;fill-rule:evenodd;clip-rule:evenodd;fill:none;stroke:#FFFFFF;stroke-width:2.126;stroke-miterlimit:10;"/>
	</g>
</g>
</svg>
