<?xml version="1.0" encoding="utf-8"?>
<!-- Generator: Adobe Illustrator 22.0.1, SVG Export Plug-In . SVG Version: 6.00 Build 0)  -->
<svg version="1.1" id="Layer_1" xmlns="http://www.w3.org/2000/svg" xmlns:xlink="http://www.w3.org/1999/xlink" x="0px" y="0px"
	 viewBox="0 0 95.8 124" style="enable-background:new 0 0 95.8 124;" xml:space="preserve">
<style type="text/css">
	.st0{clip-path:url(#SVGID_3_);fill:none;stroke:#909090;stroke-miterlimit:10;}
	.st1{clip-path:url(#SVGID_5_);fill:none;stroke:#909090;stroke-miterlimit:10;}
	.st2{clip-path:url(#SVGID_7_);fill:none;stroke:#909090;stroke-miterlimit:10;}
	.st3{fill:none;stroke:#909090;stroke-miterlimit:10;}
</style>
<g>
	<g>
		<g>
			<g>
				<defs>
					<path id="SVGID_1_" d="M6.8,58.7c0-29.5,18.6-51.6,41.5-51.6s41.5,22,41.5,51.6c0,29.5-24.1,57.4-41.5,57.4
						C31,116.1,6.8,88.3,6.8,58.7z"/>
				</defs>
				<clipPath id="SVGID_3_">
					<use xlink:href="#SVGID_1_"  style="overflow:visible;"/>
				</clipPath>
				<path class="st0" d="M51.2,47.5c0,11.9,9.6,21.5,21.5,21.5s21.5-9.6,21.5-21.5S84.6,26,72.7,26S51.2,35.6,51.2,47.5z M36.7,47.5
					c0-19.9,16.1-36,36-36s36,16.1,36,36s-16.1,36-36,36S36.7,67.4,36.7,47.5z"/>
				<use xlink:href="#SVGID_1_"  style="overflow:visible;fill:none;stroke:#909090;stroke-miterlimit:10;"/>
			</g>
		</g>
		<g>
			<g>
				<defs>
					<path id="SVGID_4_" d="M6.8,58.7c0-29.5,18.6-51.6,41.5-51.6s41.5,22,41.5,51.6c0,29.5-24.1,57.4-41.5,57.4
						C31,116.1,6.8,88.3,6.8,58.7z"/>
				</defs>
				<clipPath id="SVGID_5_">
					<use xlink:href="#SVGID_4_"  style="overflow:visible;"/>
				</clipPath>
				<path class="st1" d="M20.4,37.1c0,11.9,9.6,21.5,21.5,21.5S63.4,49,63.4,37.1s-9.6-21.5-21.5-21.5C30,15.5,20.4,25.2,20.4,37.1z
					 M5.9,37.1c0-19.9,16.1-36,36-36s36,16.1,36,36s-16.1,36-36,36S5.9,57,5.9,37.1z"/>
				<use xlink:href="#SVGID_4_"  style="overflow:visible;fill:none;stroke:#909090;stroke-miterlimit:10;"/>
			</g>
		</g>
		<g>
			<g>
				<defs>
					<path id="SVGID_6_" d="M6.8,58.7c0-29.5,18.6-51.6,41.5-51.6s41.5,22,41.5,51.6c0,29.5-24.1,57.4-41.5,57.4
						C31,116.1,6.8,88.3,6.8,58.7z"/>
				</defs>
				<clipPath id="SVGID_7_">
					<use xlink:href="#SVGID_6_"  style="overflow:visible;"/>
				</clipPath>
				<path class="st2" d="M28,79.2c0,14.5,11.7,26.2,26.2,26.2s26.2-11.7,26.2-26.2C80.3,64.7,68.6,53,54.1,53S28,64.7,28,79.2z
					 M10.3,79.2c0-24.2,19.6-43.8,43.8-43.8C78.3,35.3,98,55,98,79.2S78.4,123,54.2,123C29.9,123,10.3,103.4,10.3,79.2z"/>
				<use xlink:href="#SVGID_6_"  style="overflow:visible;fill:none;stroke:#909090;stroke-miterlimit:10;"/>
			</g>
		</g>
		<g>
			<path id="SVGID_2_" class="st3" d="M6.8,58.7c0-29.5,18.6-51.6,41.5-51.6s41.5,22,41.5,51.6c0,29.5-24.1,57.4-41.5,57.4
				C31,116.1,6.8,88.3,6.8,58.7z"/>
		</g>
	</g>
</g>
</svg>
